# xmcd
#
# Track frame offsets: 
#        150
#        15265
#        31136
#        41975
#        60722
#        75137
#        90596
#        114743
#        126743
#        146750
#        172149
#        188655
#        202532
#        214595
#        228427
#        241093
#        256764
#        272936
#        276380
#        296183
#        309847
#        320974
#
# Disc length: 4417 seconds
#
# Revision: 0
# Processed by: cddbd v1.5.2PL0 Copyright (c) Steve Scherf et al.
# Submitted via: ExactAudioCopy v0.99pb4
#
DISCID=3e113f16
DTITLE=Replacements - Almost America's Best Band
DYEAR=1989
DGENRE=Ambient
TTITLE0=Color Me Impressed
TTITLE1=Take Me Nowhere
TTITLE2=Susan
TTITLE3=Sadly Beautiful
TTITLE4=She's a Goer
TTITLE5=Another Girl, Another Planet
TTITLE6=Here Comes a Regular
TTITLE7=Waitress in the Sky
TTITLE8=Go
TTITLE9=Nightclub Jitters
TTITLE10=I'll Be You
TTITLE11=Sweet Home Chicago
TTITLE12=Born in the USA
TTITLE13=Honky Tonk Women
TTITLE14=California Sun
TTITLE15=September Gurls
TTITLE16=I Can Help
TTITLE17=Hello Dolly
TTITLE18=Cross Tie Walker
TTITLE19=I Could Never Take the Place of Your Man
TTITLE20=Look of Love
TTITLE21=unknown
EXTD=
EXTT0=
EXTT1=
EXTT2=
EXTT3=
EXTT4=
EXTT5=
EXTT6=
EXTT7=
EXTT8=
EXTT9=
EXTT10=
EXTT11=
EXTT12=
EXTT13=
EXTT14=
EXTT15=
EXTT16=
EXTT17=
EXTT18=
EXTT19=
EXTT20=
EXTT21=
PLAYORDER=
